<svg width="1618" height="361" viewBox="0 0 1618 361" fill="none" xmlns="http://www.w3.org/2000/svg">
<path fill-rule="evenodd" clip-rule="evenodd" d="M846.683 0.0666532C847.694 0.62757 861.507 14.0896 906.543 58.9629L876.669 88.9159C860.16 105.519 846.121 118.981 845.335 118.981C844.549 118.981 830.623 105.519 784.802 58.9629L814.788 29.01C838.597 5.22709 845.223 -0.718631 846.683 0.0666532V0.0666532ZM820.74 58.9629C838.709 77.6976 844.549 83.0824 845.111 83.0824C845.672 83.0824 851.512 77.8098 858.026 71.3031L869.818 59.5239C851.512 41.238 845.672 35.9653 845.111 35.9653C844.437 35.9653 838.709 41.1258 832.308 47.5202L820.74 58.9629Z" fill="#F7CC3E"/>
<path fill-rule="evenodd" clip-rule="evenodd" d="M93.7764 133.453C99.2794 133.677 106.692 134.575 110.061 135.472C113.43 136.37 118.259 137.604 120.73 138.052C123.201 138.613 127.469 139.847 130.276 140.969C133.084 142.091 138.587 144.671 142.63 146.803C146.673 148.934 151.839 151.851 154.198 153.309C156.444 154.768 158.353 156.226 158.353 156.563C158.353 156.899 154.085 163.406 148.807 171.146C143.528 178.887 138.924 185.057 138.362 184.833C137.913 184.721 133.533 182.701 128.592 180.233C123.65 177.877 118.372 175.409 116.799 174.848C115.227 174.175 113.093 173.278 111.97 172.717C110.959 172.156 108.826 171.707 107.253 171.707C105.681 171.707 103.435 171.259 102.199 170.585C100.964 169.912 93.7764 169.464 86.1395 169.464C77.3796 169.351 70.9781 169.912 68.5073 170.81C66.3735 171.707 63.1166 173.166 61.2073 174.175C59.2981 175.073 56.3781 177.653 54.5812 179.672C52.8966 181.804 50.6505 185.281 49.8643 187.413C48.9659 189.544 48.292 194.593 48.292 198.631C48.292 202.782 48.9659 207.382 49.8643 209.289C50.7628 211.084 53.4582 214.449 55.8166 216.693C58.1751 218.936 62.555 221.741 65.6996 223.087C68.7319 224.321 76.818 226.228 83.6688 227.238C90.5195 228.136 99.2794 229.482 103.322 230.155C107.366 230.828 114.666 232.623 119.607 234.081C124.549 235.54 131.175 238.232 134.207 240.027C137.239 241.822 141.619 244.963 143.865 247.095C146.111 249.114 149.818 253.265 152.064 256.406C154.422 259.435 157.567 264.707 159.027 267.848C160.487 271.102 162.508 277.16 163.519 281.31C164.867 286.92 165.091 291.631 164.642 299.035C164.305 304.532 163.07 312.161 161.947 315.863C160.711 319.565 158.578 324.95 157.118 327.754C155.658 330.559 152.401 335.159 149.93 337.851C147.459 340.655 142.855 344.582 139.822 346.713C136.678 348.733 130.95 351.874 126.907 353.444C122.864 355.127 117.361 357.034 114.553 357.707C111.746 358.38 103.996 359.502 97.1456 360.175C87.9364 361.073 81.6472 361.073 72.4381 360.175C65.5873 359.39 56.2658 357.932 51.6612 356.698C47.0567 355.464 39.9813 353.22 35.9383 351.649C31.8952 350.079 26.6168 347.611 24.146 346.265C21.6753 344.806 17.4076 342.338 14.5999 340.543C11.7922 338.861 7.41227 335.719 4.7169 333.7C2.13383 331.569 0 329.549 0 328.988C0 328.54 1.68461 326.408 3.70613 324.277C5.61535 322.145 10.1076 317.097 13.4768 313.058C16.8461 309.02 20.2153 305.093 21.0014 304.308C21.6753 303.635 22.5737 302.962 22.9106 302.962C23.2476 302.962 26.7291 305.093 30.6598 307.674C34.4783 310.254 41.4413 314.068 46.0459 316.2C50.6505 318.443 56.2658 320.575 58.3997 321.136C60.5335 321.697 67.8335 322.818 74.6842 323.604C83.4441 324.725 89.5087 324.838 95.461 324.165C100.066 323.604 106.13 322.37 108.938 321.472C111.746 320.575 116.013 318.443 118.484 316.648C120.955 314.966 124.099 311.376 125.447 308.571C126.795 305.766 128.255 300.943 128.704 297.914C129.153 294.099 128.816 290.285 127.693 286.134C126.57 282.32 124.549 278.506 122.19 276.15C120.169 274.019 116.238 271.214 113.43 269.98C110.622 268.746 106.355 267.4 103.884 266.951C101.413 266.39 92.3164 264.932 83.6688 263.698C75.0211 262.351 65.6996 260.781 62.892 260.108C60.0843 259.435 55.3674 257.864 52.2228 256.742C49.1905 255.62 43.9121 253.04 40.5428 251.021C37.2859 249.114 31.7829 244.402 28.1891 240.7C24.7076 236.998 20.3276 230.716 18.306 226.677C16.3968 222.639 14.1507 217.366 13.4768 214.898C12.6907 212.43 12.1292 204.577 12.1292 197.509C12.1292 190.33 12.6907 183.487 13.3645 182.028C14.0384 180.682 14.5999 178.55 14.5999 177.316C14.5999 176.082 15.9476 172.717 17.5199 169.688C19.2045 166.771 21.8999 162.396 23.5845 159.928C25.3814 157.46 28.1891 154.094 29.986 152.524C31.6706 150.953 36.1629 147.588 39.869 145.12C43.5751 142.652 49.1905 139.735 52.2228 138.613C55.3674 137.491 59.635 136.145 61.7689 135.472C63.9027 134.911 69.7427 134.126 74.6842 133.677C79.6257 133.341 88.2733 133.116 93.7764 133.453V133.453ZM856.341 133.341C860.047 133.453 865.887 134.126 869.257 134.799C872.626 135.472 876.444 136.482 877.68 136.93C878.915 137.379 881.723 138.501 883.857 139.286C885.99 140.072 890.82 142.652 894.526 145.12C898.232 147.588 903.96 152.187 907.216 155.329C910.586 158.47 915.078 163.854 917.436 167.22C919.683 170.585 922.603 175.634 923.95 178.438C925.186 181.243 926.87 185.506 927.544 187.974C928.218 190.442 929.341 195.715 929.902 199.753C930.464 203.792 931.026 224.658 931.026 246.309C931.026 267.848 930.464 288.827 929.902 292.865C929.229 296.904 928.218 302.401 927.544 305.206C926.87 308.01 925.298 312.497 923.95 315.302C922.603 318.107 919.683 323.155 917.436 326.52C915.19 329.886 909.8 335.944 905.42 339.982C901.04 344.021 893.964 348.957 889.809 351.089C885.653 353.108 881.161 355.239 879.926 355.8C878.69 356.361 874.647 357.595 870.941 358.493C867.235 359.39 860.721 360.512 856.341 360.849C851.961 361.185 844.437 360.961 839.495 360.175C834.554 359.502 826.468 357.259 821.526 355.464C816.585 353.557 809.509 349.967 805.803 347.499C802.097 345.031 796.594 340.768 793.674 337.851C790.642 335.046 786.262 329.886 784.016 326.52C781.657 323.155 778.962 318.555 778.063 316.424C777.053 314.292 775.593 310.927 774.919 309.132C774.133 307.337 772.897 301.503 771.999 296.231C770.876 289.276 770.426 275.813 770.539 245.748C770.539 215.795 770.988 202.67 772.111 196.949C772.897 192.573 774.133 187.301 774.694 185.169C775.143 183.038 777.389 177.99 779.523 174.063C781.657 170.137 786.599 163.294 790.642 159.031C794.685 154.655 801.423 148.822 805.803 146.017C810.183 143.101 815.462 140.184 817.595 139.286C819.729 138.501 822.537 137.379 823.772 136.93C825.008 136.482 828.826 135.472 832.195 134.799C835.565 134.126 840.955 133.453 843.988 133.228C847.132 133.116 852.635 133.116 856.341 133.341V133.341ZM836.126 170.81C833.655 171.483 829.388 173.614 826.58 175.409C823.772 177.316 820.628 179.784 819.505 181.131C818.494 182.477 816.135 185.506 814.451 187.974C812.766 190.442 810.745 194.481 810.071 196.949C809.397 199.417 808.274 204.128 807.6 207.269C806.814 210.747 806.365 227.014 806.365 246.309C806.365 264.707 806.926 281.984 807.488 285.237C808.162 288.49 809.397 293.651 810.295 296.792C811.194 299.821 813.889 304.869 816.248 308.01C818.718 311.039 822.649 314.966 825.008 316.648C827.478 318.331 832.195 320.687 835.565 322.033C840.057 323.828 844.212 324.501 850.726 324.501C857.689 324.501 861.283 323.828 867.011 321.584C871.952 319.677 875.995 317.097 879.589 313.395C882.509 310.478 886.103 306.215 887.563 304.084C889.023 301.952 890.707 298.138 891.493 295.67C892.167 293.202 893.29 288.154 893.964 284.452C894.638 280.75 895.087 263.585 895.087 246.309C895.087 225.443 894.526 212.093 893.515 206.484C892.729 201.885 891.269 196.275 890.146 194.144C889.135 192.012 886.552 187.862 884.418 184.833C882.284 181.916 878.129 177.877 875.321 175.858C872.514 173.951 868.246 171.707 866 171.034C863.754 170.249 859.149 169.464 855.78 169.239C852.411 169.015 847.581 169.015 845.111 169.127C842.64 169.351 838.597 170.025 836.126 170.81V170.81ZM1042.21 133.341C1047.49 133.565 1054 134.238 1056.81 134.799C1059.62 135.472 1063.88 136.482 1066.36 137.043C1068.83 137.716 1072.64 138.725 1074.78 139.286C1076.91 139.959 1083.76 142.988 1089.94 146.017C1096.12 149.046 1102.63 152.748 1107.91 156.787L1098.92 170.025C1093.98 177.204 1089.27 183.599 1088.59 184.16C1087.58 184.833 1085.34 184.047 1081.85 182.028C1078.82 180.345 1072.42 177.316 1067.48 175.409C1062.54 173.502 1056.02 171.371 1052.88 170.698C1049.85 169.912 1041.42 169.351 1034.35 169.351C1026.71 169.351 1019.75 170.025 1017.39 170.81C1015.14 171.595 1010.88 173.951 1008.07 175.858C1005.15 177.99 1001.89 181.579 1000.66 184.047C999.421 186.515 998.073 191.676 997.736 195.49C997.174 200.202 997.511 204.016 998.522 207.045C999.308 209.513 1001.55 213.215 1003.35 215.347C1005.26 217.366 1009.42 220.395 1012.45 221.965C1015.59 223.424 1023.34 225.667 1029.86 226.789C1036.37 228.023 1043.33 228.921 1045.35 228.921C1047.26 228.921 1053.33 229.93 1058.83 231.277C1064.22 232.511 1069.61 233.969 1070.85 234.53C1072.08 234.979 1074.89 236.101 1077.02 236.886C1079.16 237.671 1083.76 240.139 1087.13 242.383C1090.5 244.626 1095.33 248.777 1097.8 251.582C1100.27 254.386 1103.87 259.547 1105.89 263.249C1107.91 266.839 1110.27 272.336 1111.17 275.477C1112.18 278.506 1113.19 284.564 1113.52 288.939C1113.86 293.314 1113.75 300.269 1113.08 304.645C1112.51 309.02 1111.62 314.292 1111.05 316.424C1110.49 318.555 1108.58 323.155 1106.9 326.52C1105.1 329.886 1102.29 334.373 1100.72 336.505C1099.15 338.636 1095.11 342.226 1091.96 344.694C1088.7 347.05 1083.09 350.303 1079.61 351.874C1076.01 353.444 1072.08 355.239 1070.85 355.688C1069.61 356.249 1066.13 357.146 1062.99 357.932C1059.95 358.605 1052.09 359.727 1045.58 360.288C1037.49 360.961 1029.86 360.961 1021.43 360.063C1014.69 359.39 1006.27 358.156 1002.9 357.146C999.533 356.249 995.153 355.127 993.356 354.678C991.559 354.23 987.965 352.883 985.494 351.874C983.024 350.752 978.756 348.733 975.948 347.499C973.141 346.152 966.627 342.226 961.348 338.748C956.07 335.271 951.016 331.569 950.118 330.559C948.995 329.325 948.882 328.315 949.556 327.867C950.23 327.418 955.396 321.697 961.124 314.966C966.739 308.347 971.681 302.962 972.018 302.962C972.355 302.962 975.499 304.869 979.093 307.225C982.574 309.581 989.538 313.507 994.479 315.863C999.421 318.219 1005.49 320.687 1007.96 321.136C1010.43 321.697 1017.73 322.818 1024.24 323.604C1032.44 324.613 1038.73 324.838 1045.02 324.052C1049.96 323.491 1055.8 322.482 1057.93 321.809C1060.07 321.023 1064 319.004 1066.69 317.321C1069.39 315.526 1072.76 311.937 1074.44 308.795C1077.02 304.308 1077.47 302.177 1077.59 294.548C1077.59 286.92 1077.14 284.788 1074.67 280.525C1073.09 277.721 1070.06 274.355 1067.93 273.009C1065.79 271.663 1062.09 269.868 1059.62 268.97C1057.15 268.073 1052.32 266.727 1048.95 266.054C1045.58 265.493 1038.5 264.371 1033.22 263.698C1027.95 263.025 1020.2 261.678 1015.82 260.781C1011.44 259.883 1005.15 258.089 1001.78 256.854C998.41 255.62 993.131 253.04 989.987 251.133C986.954 249.338 981.339 244.626 977.633 240.7C973.927 236.774 969.547 230.94 967.862 227.575C966.178 224.321 964.381 219.834 963.707 217.702C963.033 215.571 962.022 210.523 961.348 206.484C960.562 200.987 960.675 196.724 961.798 189.096C962.696 183.599 963.932 177.204 964.605 175.073C965.279 172.941 967.188 168.903 968.873 166.098C970.558 163.294 973.927 158.582 976.398 155.665C978.981 152.636 984.034 148.261 987.741 145.905C991.447 143.549 996.276 140.857 998.41 139.959C1000.54 139.062 1003.35 137.94 1004.59 137.491C1005.82 137.043 1008.63 136.145 1010.76 135.584C1012.9 134.911 1018.74 134.014 1023.68 133.677C1028.62 133.341 1036.93 133.116 1042.21 133.341V133.341ZM1242.34 133.565C1254.58 133.565 1258.18 133.901 1259.52 135.248C1260.98 136.706 1261.21 146.915 1261.21 213.44C1261.21 267.288 1261.66 291.183 1262.56 293.987C1263.23 296.119 1264.69 299.933 1265.81 302.401C1267.05 304.869 1270.31 309.356 1273.34 312.273C1276.26 315.302 1281.31 319.004 1284.57 320.462C1287.71 321.921 1293.55 323.604 1297.48 324.165C1301.86 324.838 1307.37 324.838 1312.31 324.165C1317.36 323.379 1322.53 321.809 1326.8 319.453C1330.5 317.434 1335.22 313.844 1337.46 311.263C1339.71 308.795 1342.52 304.757 1343.64 302.289C1344.76 299.933 1346.45 295.221 1347.24 291.968C1348.47 287.368 1348.81 270.765 1348.81 211.196C1348.81 153.982 1349.14 136.033 1350.16 134.911C1351.05 134.014 1356 133.565 1366.44 133.565C1374.64 133.565 1382.16 133.789 1383.06 134.126C1384.52 134.575 1384.75 144.335 1384.75 212.879C1384.63 275.926 1384.41 292.529 1383.06 297.914C1382.28 301.616 1381.04 306.44 1380.48 308.571C1380.03 310.703 1377.78 315.975 1375.65 320.238C1373.18 325.174 1369.02 330.783 1363.97 335.944C1359.7 340.319 1355.1 344.694 1353.86 345.704C1352.63 346.601 1348.58 349.069 1344.88 351.089C1341.17 353.108 1333.87 355.912 1328.59 357.371C1323.31 358.829 1315.79 360.288 1311.75 360.624C1307.7 360.961 1300.4 360.849 1295.46 360.288C1290.52 359.727 1282.88 358.044 1278.62 356.698C1274.35 355.352 1267.95 352.659 1264.58 350.864C1261.21 349.069 1255.93 345.479 1252.79 343.011C1249.75 340.431 1245.6 336.505 1243.58 334.373C1241.44 332.242 1237.74 326.969 1235.15 322.594C1232.57 318.219 1230.1 313.171 1229.54 311.376C1228.98 309.581 1227.74 305.318 1226.84 302.064C1225.61 297.241 1225.27 281.871 1225.05 215.683C1224.93 171.371 1225.27 134.687 1225.83 134.35C1226.39 133.901 1233.81 133.565 1242.34 133.565V133.565ZM1442.92 133.565C1455.27 133.453 1457.41 133.789 1458.98 135.472C1459.99 136.594 1461.56 139.286 1462.46 141.418C1463.47 143.549 1465.27 147.588 1466.51 150.392C1467.74 153.197 1472.12 163.294 1476.28 172.829C1480.43 182.365 1484.92 192.686 1486.38 195.827C1487.73 198.856 1489.64 203.231 1490.65 205.362C1491.55 207.494 1493.35 211.532 1494.58 214.337C1495.82 217.142 1497.95 221.853 1499.3 224.994C1500.65 228.023 1503.01 233.296 1504.47 236.437C1505.93 239.69 1507.16 242.607 1507.16 242.944C1507.16 243.28 1508.96 247.319 1511.09 251.918C1513.23 256.518 1515.02 260.557 1515.02 260.893C1515.02 261.23 1516.82 265.156 1522.77 277.721L1524.57 273.233C1525.58 270.765 1527.15 267.175 1527.94 265.38C1528.84 263.473 1532.65 254.723 1536.47 245.748C1540.18 236.774 1544.33 227.238 1545.57 224.433C1546.81 221.629 1548.49 217.702 1549.39 215.683C1550.29 213.776 1551.63 210.411 1552.53 208.391C1553.32 206.484 1554.89 202.782 1556.01 200.314C1557.14 197.846 1558.6 194.256 1559.38 192.461C1560.17 190.554 1561.85 186.852 1563.09 184.047C1564.33 181.243 1568.26 172.156 1571.74 163.854C1575.33 155.553 1579.37 145.905 1580.95 142.54C1582.41 139.174 1584.54 135.696 1585.55 134.911C1586.9 134.014 1591.95 133.565 1601.5 133.453C1611.61 133.453 1615.87 133.901 1616.88 134.911C1618.01 136.033 1618.23 161.274 1617.78 358.493H1582.97L1582.74 291.968C1582.52 255.508 1582.07 225.555 1581.62 225.555C1581.06 225.555 1579.04 229.706 1576.9 234.867C1574.77 239.915 1571.29 247.768 1569.27 252.143C1567.25 256.63 1565.56 260.557 1565.56 260.893C1565.56 261.23 1564.33 264.146 1562.87 267.288C1561.41 270.541 1559.05 275.701 1557.7 278.842C1556.35 281.871 1553.99 287.144 1552.53 290.285C1551.07 293.538 1549.84 296.455 1549.84 296.792C1549.84 297.128 1548.6 300.045 1547.14 303.186C1545.68 306.44 1543.1 312.385 1541.41 316.424C1539.84 320.462 1537.37 324.613 1536.02 325.735C1534 327.418 1531.53 327.754 1522.1 327.642C1515.7 327.642 1509.63 327.193 1508.62 326.633C1507.5 326.184 1505.93 323.94 1505.03 321.921C1504.13 319.789 1502.22 315.302 1500.65 311.937C1499.19 308.571 1497.17 303.972 1496.27 301.84C1495.37 299.709 1493.68 295.894 1492.56 293.426C1491.44 290.958 1489.75 287.144 1488.85 285.013C1487.96 282.881 1486.05 278.506 1484.7 275.477C1483.35 272.336 1481.33 267.848 1480.21 265.38C1479.08 262.912 1474.93 252.928 1470.77 243.168C1466.73 233.52 1462.8 225.555 1462.24 225.555C1461.45 225.555 1461 248.665 1460.55 358.493L1445.39 358.829C1437.08 358.941 1429.11 358.829 1425.18 357.932L1425.06 247.543C1425.06 146.466 1425.18 136.93 1426.86 135.36C1428.32 133.901 1431.58 133.565 1442.92 133.565V133.565Z" fill="black"/>
<path d="M121.853 81.3996L121.516 69.8447L121.179 58.402L765.373 58.963V81.3996H121.853Z" fill="#F7CC3E"/>
<path d="M923.052 68.3864C922.939 63.6747 923.276 59.5239 923.726 59.0751C924.287 58.6264 1069.61 58.2899 1568.93 58.2899V81.8484H924.287L923.726 79.3803C923.501 78.0341 923.164 72.9859 923.052 68.3864Z" fill="#F7CC3E"/>
<path fill-rule="evenodd" clip-rule="evenodd" d="M188.114 133.565C197.099 133.565 205.185 133.901 206.196 134.462C207.319 134.911 210.576 140.408 213.496 146.69C216.528 153.085 221.582 163.63 224.726 170.361C227.983 176.98 233.486 188.647 237.193 196.388C240.786 204.128 245.952 214.786 248.536 220.171C251.119 225.555 253.589 230.043 254.039 230.043C254.6 230.043 257.632 224.321 261.002 217.366C264.259 210.523 269.425 199.753 272.345 193.583C275.265 187.413 281.554 174.287 286.383 164.415C291.1 154.543 295.929 144.447 297.052 141.979C298.175 139.511 299.86 136.594 300.871 135.472C302.443 133.789 304.689 133.453 319.177 133.565C334.001 133.565 335.91 133.789 336.584 135.472C337.033 136.818 333.44 145.12 325.803 159.928C319.514 172.268 310.866 189.208 306.486 197.509C302.106 205.811 292.56 224.546 271.783 265.38V310.815C271.895 346.601 271.558 356.586 270.435 357.595C269.425 358.605 264.483 358.941 237.529 358.493L236.406 264.259L228.096 248.553C223.603 239.915 213.72 220.731 206.083 205.923C198.559 191.115 187.44 169.351 181.488 157.684C175.424 146.017 170.819 135.696 171.156 134.911C171.605 133.901 176.097 133.565 188.114 133.565V133.565ZM371.287 133.565C378.924 133.565 385.999 133.901 387.01 134.35C388.021 134.911 389.705 137.267 390.829 139.735C391.952 142.203 396.219 152.075 400.375 161.611C404.53 171.146 408.91 181.131 410.033 183.711C411.268 186.403 413.065 190.666 414.301 193.246C415.424 195.939 417.445 200.426 418.793 203.343C420.028 206.372 422.162 211.084 423.51 214C424.858 217.029 426.542 220.844 427.441 222.751C428.227 224.658 431.596 232.399 434.965 240.139C438.334 247.88 442.041 256.406 443.388 259.21C444.624 262.015 446.87 266.951 448.217 270.204C449.677 273.458 451.362 275.926 451.924 275.813C452.373 275.589 453.833 272.897 455.068 269.868C456.304 266.727 458.213 262.239 459.336 259.771C460.459 257.303 462.705 252.031 464.39 247.992C466.074 243.953 468.433 238.456 469.668 235.652C470.903 232.847 472.588 228.921 473.487 226.902C474.385 224.994 475.733 221.629 476.631 219.61C477.53 217.702 479.327 213.44 480.674 210.411C482.022 207.269 483.819 203.343 484.605 201.436C485.391 199.529 486.739 196.275 487.75 194.144C488.648 192.012 491.793 184.721 494.713 177.877C497.633 171.034 501.226 162.845 502.686 159.591C504.146 156.45 505.382 153.534 505.382 153.197C505.382 152.86 506.954 149.383 508.751 145.344C510.548 141.306 512.12 137.604 512.12 136.93C512.12 136.257 513.131 135.36 514.366 134.687C515.602 134.014 522.902 133.565 530.651 133.565C541.657 133.565 545.026 133.901 546.374 135.248C547.834 136.706 548.058 150.617 548.058 246.646C548.058 331.232 547.834 356.586 546.711 357.707C545.812 358.605 540.758 359.054 529.64 359.054C518.297 359.054 513.356 358.717 512.345 357.707C511.222 356.586 510.997 342.114 510.997 290.622C510.997 252.367 510.66 225.443 509.986 226.116C509.537 226.789 506.168 233.969 502.686 242.046C499.205 250.236 495.274 259.323 494.039 262.239C492.691 265.268 491.006 269.082 490.22 270.99C489.434 272.897 487.75 276.711 486.402 279.628C485.054 282.657 483.033 287.368 481.685 290.285C480.337 293.314 478.653 297.353 477.754 299.26C476.856 301.279 475.508 304.645 474.61 306.552C473.823 308.571 471.69 313.507 470.005 317.546C468.208 321.584 465.962 325.511 465.064 326.296C463.828 327.193 459.224 327.642 450.688 327.642C441.816 327.642 437.548 327.193 436.65 326.184C435.864 325.399 433.281 320.238 430.81 314.741C428.451 309.132 425.307 301.952 423.847 298.699C422.387 295.558 421.151 292.641 421.151 292.304C421.151 291.968 419.916 289.051 418.456 285.798C416.996 282.657 414.638 277.384 413.29 274.355C411.942 271.214 409.584 266.054 408.124 262.8C406.664 259.659 405.428 256.742 405.428 256.406C405.428 256.069 403.856 252.592 402.059 248.553C400.262 244.514 398.69 241.037 398.69 240.7C398.69 240.364 397.005 236.774 391.39 224.994L390.267 358.493H355.452L355.003 247.543C354.553 158.47 354.778 136.257 355.901 135.135C357.024 134.014 361.067 133.565 371.287 133.565V133.565ZM632.401 133.565C653.402 133.565 676.65 134.126 684.287 134.799C691.811 135.472 699.224 136.482 700.796 137.155C702.368 137.828 704.502 138.725 705.625 139.286C706.636 139.847 708.096 140.296 708.658 140.296C709.219 140.296 712.925 142.427 716.856 145.008C720.674 147.588 726.851 152.748 730.557 156.563C734.376 160.489 738.868 166.435 740.89 170.585C742.911 174.624 745.27 180.794 746.28 184.384C747.403 188.423 747.965 195.827 747.965 204.801C747.965 212.991 747.516 219.049 746.842 219.385C746.28 219.722 745.719 220.956 745.719 222.19C745.719 223.424 744.147 227.799 742.237 232.062C740.328 236.213 737.296 241.598 735.387 244.066C733.477 246.534 729.322 250.909 726.177 253.826C723.033 256.854 717.642 260.781 714.273 262.688C710.904 264.707 705.064 267.288 701.358 268.634C695.293 270.653 691.25 270.99 628.358 272.111L627.235 358.493H592.42L591.97 247.543C591.521 158.47 591.746 136.257 592.869 135.135C594.104 133.901 601.854 133.565 632.401 133.565V133.565ZM627.572 203.904L627.796 237.895C681.816 237.895 685.073 237.671 690.688 235.652C694.058 234.418 698.662 231.95 700.796 230.155C702.93 228.472 706.411 223.76 708.321 219.834C711.69 213.327 712.027 211.757 712.027 202.333C712.027 194.593 711.465 190.666 710.005 187.189C708.77 184.496 705.962 180.57 703.716 178.438C701.47 176.307 696.641 173.278 693.159 171.819C687.095 169.351 685.073 169.127 658.119 168.678C642.396 168.342 629.032 168.454 628.47 169.015C627.909 169.464 627.46 184.384 627.572 203.904V203.904ZM1165.75 133.565C1178.21 133.565 1181.81 133.901 1183.15 135.248C1184.61 136.706 1184.84 150.617 1184.84 246.646C1184.84 331.232 1184.61 356.586 1183.49 357.707C1182.59 358.605 1177.54 359.054 1166.42 359.054C1155.08 359.054 1150.14 358.717 1149.13 357.707C1148 356.586 1147.78 333.588 1147.67 247.095C1147.55 168.566 1147.89 137.267 1148.79 135.696C1150.02 133.789 1151.48 133.565 1165.75 133.565V133.565Z" fill="black"/>
</svg>
