<svg width="1200" height="1200" viewBox="0 0 1200 1200" fill="none" xmlns="http://www.w3.org/2000/svg">
<path d="M0 1200V600V0H1200V1200H0Z" fill="#010101"/>
<g filter="url(#filter0_d_1_6)">
<path d="M295.2 299C285.6 285 275.3 270 272.2 265.8L266.8 258L465.5 258.1L498.5 306.2C516.6 332.7 536.9 362.3 543.6 372C550.2 381.6 569.1 409.1 585.5 433L588.074 436.751C603.472 459.191 617.321 479.373 619.5 482.5C621.518 485.396 625.615 491.217 629.156 496.248L630.6 498.3C636.1 506.1 637.7 507.9 638.6 506.8C639.3 506.1 654.3 488.6 672 468C689.7 447.4 713.1 420.1 724 407.5C734.9 394.8 759.6 366 779 343.5C798.4 320.9 822 293.5 831.5 282.5C841 271.5 849.6 261.5 852.5 257.9L910.8 258.5L849.8 329.5C816.2 368.5 774.1 417.6 756.1 438.4C739.002 458.364 712.779 488.821 696.432 507.807L694.2 510.4C678 529.2 664.6 545.1 664.4 545.7C664.2 546.4 666.6 550.9 669.9 555.7C673.1 560.6 684.1 576.6 694.3 591.5C704.5 606.3 714.7 621.2 717 624.5C719.3 627.8 741.9 660.6 767.2 697.5C792.4 734.3 816.1 768.9 819.8 774.2C823.5 779.6 834.5 795.6 844.2 809.7C853.9 823.9 868.8 845.5 877.2 857.7C885.6 870 898 888 904.7 897.7C911.4 907.5 920.5 920.8 933 939L734.5 938.9L714.5 909.7C703.5 893.7 686.2 868.4 676 853.5C665.8 838.7 638.1 798.4 614.5 764C590.9 729.6 567.6 695.6 562.6 688.3C557.6 681 553.2 675.2 552.9 675.3C552.5 675.4 539.5 690.4 523.9 708.5C508.3 726.6 483.4 755.7 468.5 773C453.6 790.3 428.4 819.6 412.6 838C396.7 856.4 370.8 886.7 326 939H267L300.3 900.3C318.5 879.1 346.3 846.8 361.9 828.6C377.6 810.4 404 779.6 420.7 760.2C437.4 740.9 464.8 708.9 481.7 689.2C498.6 669.6 515.7 649.8 519.7 645.2C524.2 640.1 526.7 636.5 526.3 635.7C525.9 635.1 519.9 626.3 513 616.3C506.1 606.3 494 588.5 486 576.9C478 565.2 465.2 546.5 457.5 535.3C449.8 524.1 436.1 504.2 427 491C417.9 477.8 406.9 461.7 402.4 455.2C398 448.8 376 416.7 353.5 384C331 351.3 304.8 313 295.2 299Z" fill="#FFD700"/>
</g>
<path d="M378.5 347.5C362 323.9 348.1 303.9 347.6 303.2C347 302.2 355.9 302 437.4 302.5L454.8 327.5C464.4 341.3 485.7 371.6 502 395C518.3 418.4 551 465.2 574.7 499C598.3 532.8 623.4 568.8 630.5 579C637.6 589.2 647 602.7 651.5 609C656 615.3 666.9 630.9 675.7 643.5C684.5 656.1 709.4 691.9 731.2 723C752.9 754.1 780.5 793.7 792.6 811C804.7 828.3 823.1 854.5 833.3 869.3C843.6 884 852 896.2 852 896.5C852 896.8 831.9 897 762.5 897L742.1 867.8C730.8 851.7 699.1 806.3 671.7 767C644.2 727.7 606.8 674.1 588.5 648C570.3 621.9 537.4 574.9 515.5 543.5C493.6 512.1 460.6 464.9 442.1 438.5C423.7 412.1 395 371.1 378.5 347.5Z" fill="#010101"/>
<defs>
<filter id="filter0_d_1_6" x="262.8" y="257.9" width="674.2" height="689.1" filterUnits="userSpaceOnUse" color-interpolation-filters="sRGB">
<feFlood flood-opacity="0" result="BackgroundImageFix"/>
<feColorMatrix in="SourceAlpha" type="matrix" values="0 0 0 0 0 0 0 0 0 0 0 0 0 0 0 0 0 0 127 0" result="hardAlpha"/>
<feOffset dy="4"/>
<feGaussianBlur stdDeviation="2"/>
<feComposite in2="hardAlpha" operator="out"/>
<feColorMatrix type="matrix" values="0 0 0 0 0 0 0 0 0 0 0 0 0 0 0 0 0 0 0.25 0"/>
<feBlend mode="normal" in2="BackgroundImageFix" result="effect1_dropShadow_1_6"/>
<feBlend mode="normal" in="SourceGraphic" in2="effect1_dropShadow_1_6" result="shape"/>
</filter>
</defs>
</svg>
